<svg width="32" height="32" viewBox="0 0 32 32" fill="none" xmlns="http://www.w3.org/2000/svg">
<path d="M6.01333 20.64L8.67999 18.52C9.31999 18.0134 9.69333 17.24 9.69333 16.4267V12.96C13.72 11.6534 18.08 11.64 22.12 12.96V16.44C22.12 17.2534 22.4933 18.0267 23.1333 18.5334L25.7867 20.64C26.8533 21.48 28.3733 21.4 29.3333 20.44L30.96 18.8134C32.0267 17.7467 32.0267 15.9734 30.8933 14.9734C22.3467 7.42669 9.46666 7.42669 0.919993 14.9734C-0.21334 15.9734 -0.21334 17.7467 0.853326 18.8134L2.47999 20.44C3.42666 21.4 4.94666 21.48 6.01333 20.64Z" fill="white"/>
</svg>
